PathFileType	4	(X/Y/Z)	/Users/itak/Documents/Research/Walk-IL/dataset/trc/00151_00007.trc
DataRate	CameraRate	NumFrames	NumMarkers	Units	OrigDataRate	OrigDataStartFrame	OrigNumFrames
100.000000	100.000000	4	53	mm	100.000000	476	544
Frame#	Time	RPSI			LPSI			L3			STRN			T10			C7			CLAV			RBAK			LBAK			LSHO			LUPA			LAEL			LAOL			LWTS			LWPS			LFRA			LIFD			LHPS			LHTS			RSHO			RUPA			RAEL			RAOL			RWTS			RWPS			RFRA			RIFD			RHTS			RHPS			RBHD			LFHD			RFHD			LBHD			LHIP			RHIP			RASI			LASI			LKNE			LTHI			LANK			LTIP			LTOE			LMT1			LMT5			LHEE			RKNE			RTHI			RANK			RTIP			RTOE			RMT1			RMT5			RHEE			
		X1	Y1	Z1	X2	Y2	Z2	X3	Y3	Z3	X4	Y4	Z4	X5	Y5	Z5	X6	Y6	Z6	X7	Y7	Z7	X8	Y8	Z8	X9	Y9	Z9	X10	Y10	Z10	X11	Y11	Z11	X12	Y12	Z12	X13	Y13	Z13	X14	Y14	Z14	X15	Y15	Z15	X16	Y16	Z16	X17	Y17	Z17	X18	Y18	Z18	X19	Y19	Z19	X20	Y20	Z20	X21	Y21	Z21	X22	Y22	Z22	X23	Y23	Z23	X24	Y24	Z24	X25	Y25	Z25	X26	Y26	Z26	X27	Y27	Z27	X28	Y28	Z28	X29	Y29	Z29	X30	Y30	Z30	X31	Y31	Z31	X32	Y32	Z32	X33	Y33	Z33	X34	Y34	Z34	X35	Y35	Z35	X36	Y36	Z36	X37	Y37	Z37	X38	Y38	Z38	X39	Y39	Z39	X40	Y40	Z40	X41	Y41	Z41	X42	Y42	Z42	X43	Y43	Z43	X44	Y44	Z44	X45	Y45	Z45	X46	Y46	Z46	X47	Y47	Z47	X48	Y48	Z48	X49	Y49	Z49	X50	Y50	Z50	X51	Y51	Z51	X52	Y52	Z52	X53	Y53	Z53	

477	4.76	420.0745849609375	1120.992553710938	337.8310852050781	555.2444458007812	1126.966674804688	331.6156616210938	489.6473999023438	1157.496215820312	326.22509765625	496.7994995117188	1365.309448242188	535.2398071289062	489.244384765625	1306.894775390625	281.5279541015625	504.689453125	1600.218505859375	306.6351013183594	498.4722595214844	1498.251831054688	493.2776794433594	414.5527648925781	1413.611328125	261.1056823730469	606.7507934570312	1579.561767578125	300.1785278320312	673.29443359375	1568.22998046875	387.151123046875	745.0276489257812	1437.886474609375	383.1013793945312	772.5721435546875	1224.736206054688	439.6466979980469	719.5426635742188	1197.823120117188	374.0384216308594	725.6453247070312	993.233642578125	591.5701293945312	756.0803833007812	950.451416015625	519.3050537109375	776.5765380859375	1113.821044921875	480.6021423339844	699.890625	808.5692749023438	644.3707275390625	752.92822265625	883.4149169921875	563.9581298828125	733.2722778320312	909.2793579101562	625.4384765625	323.9347534179688	1584.19189453125	365.7051391601562	259.1792907714844	1510.361328125	353.1999816894531	231.3597106933594	1215.787109375	364.0706787109375	327.2557373046875	1212.271484375	350.8002319335938	255.4905853271484	986.6006469726562	529.1506958007812	215.6785736083984	963.6986694335938	458.0906982421875	216.3258514404297	1144.859985351562	394.93115234375	273.15185546875	794.8208618164062	567.7244262695312	250.8604278564453	881.346435546875	567.6219482421875	214.8664703369141	867.4183959960938	504.4347839355469	431.2829895019531	1784.54443359375	361.0810852050781	582.5380859375	1830.030029296875	515.2040405273438	454.981689453125	1845.109741210938	528.39404296875	565.0466918945312	1775.031372070312	340.6229858398438	668.003662109375	1042.883544921875	423.2882385253906	319.0646362304688	1026.199829101562	472.5032348632812	367.4428100585938	1106.557373046875	550.3569946289062	632.5960083007812	1110.631958007812	531.1827392578125	638.9916381835938	541.2933349609375	462.6412048339844	665.9361572265625	687.3331298828125	437.4237976074219	627.5388793945312	39.44098281860352	347.276123046875	661.5333862304688	293.8883056640625	362.88623046875	568.0174560546875	35.43619537353516	578.2352905273438	536.6509399414062	43.65787124633789	495.5339660644531	652.490966796875	36.04970932006836	471.2404479980469	567.3768920898438	39.19693756103516	277.45361328125	365.0658874511719	537.8839721679688	522.6893920898438	324.7206115722656	816.98046875	513.3609619140625	374.8097839355469	28.87944984436035	388.6624450683594	351.7313537597656	402.107177734375	491.5558471679688	438.6809997558594	45.52015686035156	616.6815185546875	479.7494201660156	39.79581832885742	556.0458984375	359.9729614257812	38.3329963684082	523.0759887695312	420.3697814941406	30.31604766845703	328.8452758789062	
478	4.77	419.4049682617188	1121.276977539062	339.1470336914062	554.5767822265625	1126.9296875	332.6939392089844	488.9789428710938	1157.495483398438	327.41650390625	496.6394653320312	1365.37353515625	536.2919311523438	488.528564453125	1306.889526367188	282.6075439453125	503.9931335449219	1600.25341796875	307.6422729492188	498.2386474609375	1498.310791015625	494.2935791015625	413.7944641113281	1413.637939453125	262.2887268066406	606.0759887695312	1579.574340820312	301.00732421875	672.8905639648438	1568.268310546875	387.8096008300781	744.5278930664062	1437.801513671875	383.17822265625	771.8978881835938	1224.216796875	438.1793212890625	718.6956787109375	1197.999877929688	372.4821166992188	725.5473022460938	990.3584594726562	586.8314819335938	755.9903564453125	948.8322143554688	513.8465576171875	776.0650024414062	1112.806274414062	477.6785583496094	699.982666015625	804.7258911132812	636.4368286132812	752.9180908203125	881.0241088867188	557.3421630859375	733.2630615234375	905.7884521484375	619.2672119140625	323.4290161132812	1584.166625976562	367.0854187011719	258.6175231933594	1510.32177734375	354.8529052734375	230.0486755371094	1215.896362304688	366.7996826171875	325.84033203125	1212.084594726562	353.0657043457031	254.3488006591797	987.0625610351562	532.2549438476562	214.1651000976562	964.0904541015625	461.4410705566406	215.0223236083984	1145.083862304688	397.9315795898438	271.5555114746094	795.3145751953125	571.30419921875	249.6678619384766	881.9513549804688	571.1571044921875	213.2818450927734	867.9344482421875	508.0792236328125	430.5041198730469	1784.435180664062	362.0349731445312	581.9383544921875	1830.344848632812	515.905517578125	454.4257202148438	1845.21533203125	529.3211669921875	564.3072509765625	1775.122192382812	341.4269409179688	667.3257446289062	1042.716796875	424.1702270507812	318.7129211425781	1026.392700195312	473.5667114257812	367.0988464355469	1106.798950195312	551.77734375	632.208251953125	1110.500732421875	532.0516357421875	638.6012573242188	541.2008056640625	463.8187866210938	665.4470825195312	687.2809448242188	438.5481872558594	627.5136108398438	39.48348236083984	347.2799682617188	661.1082763671875	293.9036865234375	363.274658203125	568.1018676757812	35.53643035888672	578.2137451171875	536.6405029296875	43.68120956420898	495.5469970703125	652.4705810546875	36.07374954223633	471.2447204589844	567.3092651367188	39.23953628540039	277.4676513671875	363.9570617675781	538.0159301757812	520.9244384765625	324.1926574707031	817.207763671875	513.818359375	374.7267150878906	28.74600601196289	388.5967712402344	350.77490234375	402.2860107421875	490.0413818359375	438.6524047851562	45.63858795166016	616.5496826171875	479.7234497070312	39.83721923828125	555.97802734375	359.9257202148438	38.31080627441406	523.0429077148438	420.2596435546875	30.16816329956055	328.7647399902344	
479	4.78	418.8083190917969	1121.542846679688	340.4452514648438	553.9715576171875	1126.862915039062	333.7609558105469	488.3713073730469	1157.456909179688	328.5927429199219	496.5097351074219	1365.398803710938	537.302734375	487.8605346679688	1306.810424804688	283.6523132324219	503.323486328125	1600.235229492188	308.5902404785156	498.0385131835938	1498.329223632812	495.2510681152344	413.0480041503906	1413.608642578125	263.44384765625	605.4248046875	1579.51708984375	301.7604064941406	672.5230712890625	1568.229370117188	388.3794250488281	744.0377197265625	1437.637084960938	383.1570739746094	771.2662963867188	1223.65771484375	436.6483459472656	717.9007568359375	1198.105834960938	370.8712768554688	725.5487670898438	987.531494140625	582.04833984375	755.9906005859375	947.2552490234375	508.3753662109375	775.6109008789062	1111.785278320312	474.7109680175781	700.260009765625	801.000732421875	628.5164184570312	753.0305786132812	878.715576171875	550.7256469726562	733.3784790039062	902.3893432617188	613.0694580078125	322.9559020996094	1584.10205078125	368.4175109863281	258.0798950195312	1510.24169921875	356.442626953125	228.8363037109375	1215.9697265625	369.4093017578125	324.5278625488281	1211.871215820312	355.2904663085938	253.229248046875	987.50244140625	535.2719116210938	212.7309112548828	964.4465942382812	464.68115234375	213.8066558837891	1145.259887695312	400.8101196289062	269.9954528808594	795.78125	574.8528442382812	248.4783935546875	882.52392578125	574.6112060546875	211.7706146240234	868.42431640625	511.6199340820312	429.7439575195312	1784.283813476562	362.9281311035156	581.34130859375	1830.60498046875	516.5956420898438	453.869140625	1845.262329101562	530.2079467773438	563.6103515625	1775.184204101562	342.2087097167969	666.7124633789062	1042.525390625	425.0166320800781	318.3713684082031	1026.558837890625	474.63671875	366.7755126953125	1107.002197265625	553.1834106445312	631.8565673828125	1110.380126953125	532.9268188476562	638.2520751953125	541.0806274414062	464.8747863769531	665.011474609375	687.1964721679688	439.57373046875	627.4751586914062	39.49655914306641	347.2593994140625	660.6981811523438	293.9432067871094	363.6067504882812	568.1898803710938	35.64726257324219	578.1800537109375	536.6299438476562	43.69671630859375	495.5442504882812	652.451904296875	36.09075546264648	471.2345275878906	567.2420654296875	39.24252319335938	277.4671020507812	362.9219360351562	538.1260986328125	519.2728881835938	323.7445983886719	817.4400634765625	514.2777709960938	374.6417541503906	28.61750221252441	388.5174560546875	349.8877258300781	402.4530944824219	488.6091003417969	438.6290283203125	45.75695037841797	616.418212890625	479.7001037597656	39.88080978393555	555.908447265625	359.8822021484375	38.29301834106445	523.008544921875	420.1355285644531	30.0177116394043	328.67578125	
480	4.79	418.2915649414062	1121.7919921875	341.7267456054688	553.4324340820312	1126.776123046875	334.8168640136719	487.8338317871094	1157.387451171875	329.7540588378906	496.410400390625	1365.39111328125	538.2731323242188	487.246826171875	1306.667602539062	284.6657409667969	502.6792907714844	1600.168579101562	309.4769287109375	497.8730163574219	1498.31103515625	496.1506958007812	412.3096008300781	1413.52783203125	264.5715942382812	604.7914428710938	1579.400024414062	302.4359130859375	672.1876220703125	1568.126953125	388.8626708984375	743.5606079101562	1437.41259765625	383.0444946289062	770.67431640625	1223.069458007812	435.0433349609375	717.1351318359375	1198.15673828125	369.2059326171875	725.6443481445312	984.7716064453125	577.23046875	756.0586547851562	945.7328491210938	502.8934936523438	775.2077026367188	1110.768798828125	471.6929626464844	700.7453002929688	797.4127197265625	620.6398315429688	753.259033203125	876.504638671875	544.1182861328125	733.6265258789062	899.1029663085938	606.8594970703125	322.5107116699219	1584.0107421875	369.6998901367188	257.5608825683594	1510.138061523438	357.9727172851562	227.7192230224609	1216.012573242188	371.8938903808594	323.3238830566406	1211.64306640625	357.4683227539062	252.1405181884766	987.9229736328125	538.1987915039062	211.388671875	964.7714233398438	467.8036193847656	212.6831665039062	1145.3955078125	403.5641479492188	268.5036926269531	796.2186279296875	578.3661499023438	247.2835693359375	883.048583984375	577.9514770507812	210.3440246582031	868.8904418945312	515.0419311523438	429.0122375488281	1784.102783203125	363.76513671875	580.756103515625	1830.814575195312	517.274658203125	453.3140869140625	1845.254272460938	531.0496826171875	562.954833984375	1775.228881835938	342.9625549316406	666.1817016601562	1042.320434570312	425.8185424804688	318.0780639648438	1026.700439453125	475.7051391601562	366.4808654785156	1107.168823242188	554.5722045898438	631.5386962890625	1110.264404296875	533.8109741210938	637.9309692382812	540.9363403320312	465.82666015625	664.6127319335938	687.0828857421875	440.5165710449219	627.4209594726562	39.49151992797852	347.2222595214844	660.3321533203125	293.9969177246094	363.9109802246094	568.2764282226562	35.75941467285156	578.1419677734375	536.613525390625	43.69818115234375	495.5328674316406	652.42578125	36.10440063476562	471.2142944335938	567.1695556640625	39.21438217163086	277.4573364257812	361.9620056152344	538.2107543945312	517.7457275390625	323.3612976074219	817.6704711914062	514.7191162109375	374.552490234375	28.49649047851562	388.4292602539062	349.0656127929688	402.6070251464844	487.2735900878906	438.6101989746094	45.8678092956543	616.2932739257812	479.6775817871094	39.92546081542969	555.8382568359375	359.8414001464844	38.27946853637695	522.9742431640625	420.00048828125	29.86934471130371	328.5845336914062	
